<svg id="Layer_1" data-name="Layer 1" xmlns="http://www.w3.org/2000/svg" viewBox="0 0 300 300"><title>bcs_pool</title><path d="M686.76,275.07a149.92,149.92,0,0,1-150,150H535a150.86,150.86,0,0,1-38-5.31,150,150,0,0,1,0-289.35,148.33,148.33,0,0,1,21.2-4.19,152.53,152.53,0,0,1,16.8-1.13h1.76a148.43,148.43,0,0,1,19.44,1.26A150,150,0,0,1,686.76,275.07Z" transform="translate(-386.76 -125.07)" fill="#00afff"/><path d="M588.47,270.08c12.13-6.2,19.86-17.23,18.06-35.57-2.34-25.09-22.95-33.5-50.24-35.84V163.93h-.09v-37.6a148.43,148.43,0,0,0-19.44-1.26H535v42.44h.06V197.7c-5.52,0-11.17.14-16.82.28v-34h0V126.21A148.33,148.33,0,0,0,497,130.4v68.27c-7.8.23-16.89.12-42.59,0v22.61c16.76-.3,25.55-1.38,27.57,9.37v95.13c-1.28,8.52-8.11,7.29-23.3,7L454.41,358c38.71,0,42.6.14,42.6.14v29.76h0v31.82a146.94,146.94,0,0,0,21.2,4.18V358.59c5.79.13,11.44.13,16.82.13v27h0v39.34h1.72a150.81,150.81,0,0,0,19.48-1.26V387.93h0V358.17c35.56-1.93,59.34-10.89,62.51-44.39C621.28,286.9,608.6,274.9,588.47,270.08Zm-69.82-47.29c12,0,49.49-3.72,49.49,21.23,0,23.85-37.5,21.1-49.49,21.1Zm0,110.15V286.35c14.34,0,58.24-4,58.24,23.3C576.89,336,533,332.94,518.65,332.94Z" transform="translate(-386.76 -125.07)" fill="#fff"/></svg>